<?xml version="1.0" encoding="utf-8"?>
<!-- Generator: Adobe Illustrator 19.1.1, SVG Export Plug-In . SVG Version: 6.00 Build 0)  -->
<svg version="1.1" id="Layer_1" xmlns="http://www.w3.org/2000/svg" xmlns:xlink="http://www.w3.org/1999/xlink" x="0px" y="0px"
	 viewBox="217 -104 1046 1000" style="enable-background:new 217 -104 1046 1000;" xml:space="preserve">
<path d="M454.5,896V221.3H230.2V896H454.5z M342.4,129.1c78.2,0,126.9-51.8,126.9-116.6C467.8-53.6,420.6-104,343.9-104
	C267.2-104,217-53.6,217,12.6c0,64.7,48.7,116.6,123.9,116.6H342.4L342.4,129.1z M578.6,896h224.3V519.2c0-20.2,1.5-40.3,7.4-54.7
	c16.2-40.3,53.1-82,115.1-82c81.1,0,113.6,61.9,113.6,152.6V896h224.2V509.1c0-207.2-110.6-303.7-258.2-303.7
	c-121,0-174.1,67.6-203.6,113.7h1.5v-97.9H578.6C581.6,284.6,578.6,896,578.6,896L578.6,896z"/>
</svg>
