<?xml version="1.0" encoding="utf-8"?>
<!-- Generator: Adobe Illustrator 16.0.0, SVG Export Plug-In . SVG Version: 6.00 Build 0)  -->
<!DOCTYPE svg PUBLIC "-//W3C//DTD SVG 1.1//EN" "http://www.w3.org/Graphics/SVG/1.1/DTD/svg11.dtd">
<svg version="1.1" id="Layer_1" xmlns="http://www.w3.org/2000/svg" xmlns:xlink="http://www.w3.org/1999/xlink" x="0px" y="0px"
	 width="493.189px" height="85.721px" viewBox="55.658 365.286 493.189 85.721"
	 enable-background="new 55.658 365.286 493.189 85.721" xml:space="preserve">
<g>
	<g>
		<path fill="#FFFFFF" d="M116.973,444.458v0.297V444.458L116.973,444.458L116.973,444.458z M128.878,400.706h-16.966
			c-5.06,0-7.44,2.381-7.44,7.441v5.357c0,5.06,2.381,7.441,7.44,7.441h3.274v2.976c0,0-3.571,5.061-13.989,5.061
			c-10.417,0-20.537-7.739-20.537-21.431c0-10.12,5.357-19.644,20.537-19.644c5.953,0,8.93,1.488,13.097,3.274
			c4.464,2.381,7.738,2.083,10.417-2.083l3.571-5.655c2.679-4.465,2.084-7.441-2.083-10.417c-3.274-2.381-13.691-7.143-26.49-7.143
			c-25.895,0-44.051,17.858-44.051,43.158c0,26.489,19.942,41.968,40.777,41.968c13.691,0,20.239-6.549,20.239-6.549l0,0v-0.596
			c0,0.299,0,0.299,0,0.596l0,0l0,0c0.298,2.68,2.679,5.061,7.44,5.061h4.465c5.061,0,7.441-2.68,7.441-7.441v-33.931
			C136.616,403.087,133.938,400.706,128.878,400.706z M158.94,367.072h-9.227c-5.06,0-7.441,2.381-7.441,7.441v67.564
			c0,4.762,2.679,7.441,7.441,7.441h9.227c5.06,0,7.441-2.68,7.441-7.441v-67.564C166.381,369.751,163.702,367.072,158.94,367.072z
			 M238.113,367.072h-9.228c-5.06,0-7.44,2.381-7.44,7.441v24.109c0,5.655,0.893,15.18,0.893,15.18h-0.298
			c0,0-3.571-9.227-7.144-15.18l-13.394-26.49c-2.083-3.571-4.762-5.06-8.929-5.06h-11.013c-5.061,0-7.441,2.381-7.441,7.441v67.564
			c0,4.762,2.679,7.441,7.441,7.441h9.227c5.06,0,7.441-2.68,7.441-7.441v-24.109c0-5.357-0.894-14.882-0.894-14.882h0.298
			c0,0,3.571,9.227,7.144,14.882l13.691,26.49c2.083,3.572,4.762,5.061,8.929,5.061h10.716c5.06,0,7.44-2.68,7.44-7.441v-67.564
			C245.851,369.751,243.172,367.072,238.113,367.072z M323.237,400.706h-16.965c-5.061,0-7.441,2.381-7.441,7.441v5.357
			c0,5.06,2.381,7.441,7.441,7.441h3.273v2.976c0,0-3.571,5.061-13.988,5.061c-10.418,0-20.537-7.739-20.537-21.431
			c0-10.12,5.357-19.644,20.537-19.644c5.952,0,8.929,1.488,13.096,3.274c4.465,2.381,7.738,2.083,10.417-2.083l3.572-5.655
			c2.679-4.465,2.083-7.441-2.084-10.417c-3.273-2.381-13.691-7.143-26.489-7.143c-25.895,0-44.051,17.858-44.051,43.158
			c0,26.489,19.941,41.968,40.776,41.968c13.691,0,20.239-6.549,20.239-6.549l0,0v-0.596c0,0.299,0,0.299,0,0.596l0,0l0,0
			c0.298,2.68,2.679,5.061,7.441,5.061h4.465c5.06,0,7.44-2.68,7.44-7.441v-33.931C330.678,403.087,328.297,400.706,323.237,400.706
			z M311.331,444.458v0.297V444.458L311.331,444.458L311.331,444.458z M383.657,428.982h-23.216v-10.418h15.478
			c5.06,0,7.441-2.381,7.441-7.441v-5.655c0-4.762-2.679-7.441-7.441-7.441h-15.478v-10.12h21.729c4.762,0,7.44-2.679,7.44-7.441
			v-5.655c0-5.06-2.679-7.441-7.44-7.441h-38.396c-5.06,0-7.44,2.381-7.44,7.441v67.563c0,4.764,2.679,7.441,7.44,7.441h39.884
			c5.061,0,7.441-2.678,7.441-7.441v-5.654C391.099,431.66,388.718,428.982,383.657,428.982z M450.329,422.136
			c-1.786-3.275-3.571-5.358-3.571-5.358v-0.298c8.036-5.06,11.607-14.584,11.607-22.918c0-12.203-6.846-21.728-16.072-24.704
			c-3.572-1.19-8.93-1.786-16.37-1.786H403.6c-5.06,0-7.441,2.381-7.441,7.441v67.564c0,4.762,2.679,7.441,7.441,7.441h9.227
			c5.061,0,7.441-2.68,7.441-7.441v-18.156h5.655l10.417,20.24c2.084,3.869,5.357,5.357,8.93,5.357h10.715
			c5.655,0,8.334-3.275,5.06-8.93L450.329,422.136z M424.733,403.384h-5.061v-15.775h3.572c2.679,0,4.464,0,6.548,0.893
			c3.274,1.488,3.571,3.869,3.571,5.953C433.364,401.003,430.685,403.384,424.733,403.384z M485.45,391.181
			c0-2.083,1.488-3.87,6.251-3.87c5.06,0,8.036,1.786,12.203,3.572c3.869,1.786,7.441,2.679,10.12-2.679l3.273-6.548
			c2.084-3.87,1.488-7.441-2.381-10.417c-4.167-2.977-13.394-5.953-22.918-5.953c-17.562,0-30.657,10.417-30.657,26.49
			c0,26.49,34.824,24.704,34.824,33.336c0,2.082-1.488,3.57-5.953,3.57c-6.548,0-11.013-3.57-13.691-4.762
			c-4.465-2.381-7.441-2.084-10.418,1.785l-4.464,6.252c-3.572,5.059-1.488,8.035,1.488,10.416
			c4.762,3.572,15.477,8.037,26.787,8.037c19.347,0,30.359-12.502,30.359-26.787C520.573,397.729,485.45,400.706,485.45,391.181z
			 M536.347,367.072c-6.846,0-12.501,5.655-12.501,12.798c0,7.144,5.655,12.799,12.501,12.799c7.144,0,12.501-5.655,12.501-12.799
			C548.848,372.728,543.49,367.072,536.347,367.072z M536.347,389.693c-5.357,0-9.227-4.465-9.227-10.12
			c0-5.655,4.167-9.822,9.227-9.822c5.357,0,9.524,4.465,9.524,9.822C545.871,385.526,541.704,389.693,536.347,389.693z
			 M541.407,377.49c0-2.381-1.786-4.167-4.167-4.167h-3.869c-0.894,0-1.488,0.595-1.488,1.488v9.822
			c0,0.893,0.297,1.488,1.488,1.488h0.297c0.894,0,1.488-0.595,1.488-1.488v-3.274h1.786l1.786,3.572
			c0.297,0.595,0.893,1.19,1.785,1.19h0.596c0.893,0,1.19-0.595,0.596-1.786l-1.488-2.977c-0.298-0.595-0.596-0.595-0.596-0.595l0,0
			C540.217,380.466,541.407,379.275,541.407,377.49z M536.645,379.275h-1.786v-3.869h1.786c1.19,0,1.786,0.595,1.786,1.786
			C538.431,378.68,537.835,379.275,536.645,379.275z"/>
	</g>
</g>
</svg>
